<svg xmlns="http://www.w3.org/2000/svg" viewBox="0 0 64 64" fill="none">
  <!-- bottom graham cracker -->
  <rect x="8" y="44" width="48" height="10" rx="3" fill="#c97c1a"/>
  <rect x="12" y="46" width="6" height="6" rx="1" fill="#e8a330" opacity="0.5"/>
  <rect x="21" y="46" width="6" height="6" rx="1" fill="#e8a330" opacity="0.5"/>
  <rect x="30" y="46" width="6" height="6" rx="1" fill="#e8a330" opacity="0.5"/>
  <rect x="39" y="46" width="6" height="6" rx="1" fill="#e8a330" opacity="0.5"/>
  <!-- marshmallow ooze -->
  <rect x="10" y="32" width="44" height="14" rx="4" fill="#fff8ee"/>
  <path d="M10 38 Q18 32 26 38 Q34 44 42 38 Q50 32 54 38" stroke="#f0e8dc" stroke-width="1.5" fill="none"/>
  <!-- chocolate -->
  <rect x="10" y="28" width="44" height="8" rx="2" fill="#3d1f0d"/>
  <line x1="25" y1="28" x2="25" y2="36" stroke="#6b3a1f" stroke-width="1"/>
  <line x1="40" y1="28" x2="40" y2="36" stroke="#6b3a1f" stroke-width="1"/>
  <!-- top graham cracker -->
  <rect x="8" y="10" width="48" height="10" rx="3" fill="#c97c1a"/>
  <rect x="12" y="12" width="6" height="6" rx="1" fill="#e8a330" opacity="0.5"/>
  <rect x="21" y="12" width="6" height="6" rx="1" fill="#e8a330" opacity="0.5"/>
  <rect x="30" y="12" width="6" height="6" rx="1" fill="#e8a330" opacity="0.5"/>
  <rect x="39" y="12" width="6" height="6" rx="1" fill="#e8a330" opacity="0.5"/>
</svg>
